<svg width="24" height="24" viewBox="0 0 24 24" fill="none" xmlns="http://www.w3.org/2000/svg">
    <path d="M11.8485 5.84845L11.8485 5.84843C12.0734 5.6234 12.1998 5.31823 12.1998 5.00003C12.1998 4.68183 12.0734 4.37666 11.8485 4.15163L11.8484 4.15159C11.6234 3.92662 11.3182 3.80024 11 3.80024C10.6818 3.80024 10.3767 3.92662 10.1516 4.15159L10.1516 4.15161L3.15161 11.1516L3.15159 11.1516C2.92662 11.3767 2.80024 11.6818 2.80024 12C2.80024 12.3182 2.92662 12.6234 3.15159 12.8484L3.15161 12.8485L10.1516 19.8485L10.1516 19.8485L10.1541 19.8509C10.3804 20.0695 10.6835 20.1904 10.9982 20.1877C11.3128 20.185 11.6138 20.0588 11.8363 19.8363C12.0588 19.6138 12.185 19.3128 12.1877 18.9982C12.1904 18.6835 12.0695 18.3804 11.8509 18.1541L11.8509 18.1541L11.8485 18.1516L6.89687 13.2H20C20.3183 13.2 20.6235 13.0736 20.8486 12.8486C21.0736 12.6235 21.2 12.3183 21.2 12C21.2 11.6818 21.0736 11.3765 20.8486 11.1515C20.6235 10.9265 20.3183 10.8 20 10.8H6.89687L11.8485 5.84845Z" fill="white" stroke="white" stroke-width="0.4"/>
</svg>
