<svg width="40" height="40" viewBox="0 0 40 40" fill="none" xmlns="http://www.w3.org/2000/svg">
    <path fill-rule="evenodd" clip-rule="evenodd" d="M23.5354 18.7219H28.1484C28.8479 18.7219 29.3975 18.1436 29.3975 17.4463C29.3975 16.7319 28.8479 16.1707 28.1484 16.1707H23.5354C22.8359 16.1707 22.2863 16.7319 22.2863 17.4463C22.2863 18.1436 22.8359 18.7219 23.5354 18.7219ZM33.6275 9.8792C34.6434 9.8792 35.3096 10.2364 35.9757 11.0188C36.6419 11.8012 36.7584 12.9237 36.6086 13.9425L35.0265 25.1001C34.7267 27.2449 32.9281 28.8249 30.8131 28.8249H12.6439C10.429 28.8249 8.59705 27.0918 8.41386 24.8467L6.88172 6.30571L4.36702 5.86349C3.70087 5.74443 3.23457 5.0811 3.35114 4.40076C3.46772 3.70512 4.11721 3.24419 4.80001 3.34794L8.77192 3.95854C9.33814 4.06229 9.75448 4.53683 9.80445 5.11512L10.1209 8.92502C10.1708 9.47099 10.6038 9.8792 11.1367 9.8792H33.6275ZM12.3771 31.5131C10.9782 31.5131 9.84573 32.6697 9.84573 34.0984C9.84573 35.5101 10.9782 36.6667 12.3771 36.6667C13.7593 36.6667 14.8918 35.5101 14.8918 34.0984C14.8918 32.6697 13.7593 31.5131 12.3771 31.5131ZM31.1125 31.5131C29.7136 31.5131 28.5811 32.6697 28.5811 34.0984C28.5811 35.5101 29.7136 36.6667 31.1125 36.6667C32.4947 36.6667 33.6272 35.5101 33.6272 34.0984C33.6272 32.6697 32.4947 31.5131 31.1125 31.5131Z" fill="white"/>
</svg>
