<svg width="24" height="24" viewBox="0 0 24 24" fill="none" xmlns="http://www.w3.org/2000/svg">
    <path d="M20.5125 9.72187L13.0125 2.90624C12.736 2.65327 12.3748 2.51297 12 2.51297C11.6252 2.51297 11.264 2.65327 10.9875 2.90624L3.48752 9.72187C3.33396 9.86235 3.21132 10.0333 3.12739 10.2237C3.04346 10.4142 3.00008 10.62 3.00002 10.8281V19.4625C2.99392 19.8407 3.12743 20.2078 3.37502 20.4937C3.51554 20.6535 3.68864 20.7814 3.88269 20.8687C4.07673 20.956 4.28723 21.0008 4.50002 21H9.00002C9.19893 21 9.38969 20.921 9.53035 20.7803C9.671 20.6397 9.75002 20.4489 9.75002 20.25V15.75C9.75002 15.5511 9.82903 15.3603 9.96969 15.2197C10.1103 15.079 10.3011 15 10.5 15H13.5C13.6989 15 13.8897 15.079 14.0303 15.2197C14.171 15.3603 14.25 15.5511 14.25 15.75V20.25C14.25 20.4489 14.329 20.6397 14.4697 20.7803C14.6103 20.921 14.8011 21 15 21H19.5C19.7488 21.0022 19.994 20.9409 20.2125 20.8219C20.4503 20.6924 20.6488 20.5014 20.7874 20.2688C20.9259 20.0362 20.9994 19.7707 21 19.5V10.8281C21 10.62 20.9566 10.4142 20.8726 10.2237C20.7887 10.0333 20.6661 9.86235 20.5125 9.72187Z" fill="#CDD2DE"/>
</svg>
