<svg width="40" height="40" viewBox="0 0 40 40" fill="none" xmlns="http://www.w3.org/2000/svg">
    <path d="M15.2247 34.6223V29.5261C15.2247 28.2252 16.287 27.1706 17.5975 27.1706H22.3878C23.0171 27.1706 23.6206 27.4187 24.0656 27.8605C24.5105 28.3022 24.7605 28.9013 24.7605 29.5261V34.6223C24.7565 35.1631 24.9702 35.6832 25.354 36.067C25.7379 36.4508 26.2602 36.6667 26.805 36.6667H30.0731C31.5995 36.6706 33.0647 36.0714 34.1454 35.0014C35.2261 33.9313 35.8334 32.4783 35.8334 30.9631V16.4448C35.8334 15.2208 35.2869 14.0598 34.3411 13.2745L23.2235 4.45982C21.2895 2.91431 18.5186 2.96421 16.6424 4.57834L5.77844 13.2745C4.78798 14.0366 4.196 15.2011 4.16675 16.4448V30.9483C4.16675 34.1065 6.74572 36.6667 9.92704 36.6667H13.1206C14.2521 36.6667 15.1717 35.7604 15.1799 34.6371L15.2247 34.6223Z" fill="white"/>
</svg>
