<svg width="20" height="20" viewBox="0 0 20 20" fill="none" xmlns="http://www.w3.org/2000/svg">
    <circle cx="10" cy="10" r="10" fill="#12C358"/>
    <path d="M10.6718 4.07825C10.4936 3.90009 10.252 3.8 10 3.8C9.74804 3.8 9.50641 3.90009 9.32825 4.07825C9.15009 4.25641 9.05 4.49804 9.05 4.75V9.05H4.75C4.49804 9.05 4.25641 9.15009 4.07825 9.32825C3.90009 9.50641 3.8 9.74804 3.8 10C3.8 10.252 3.90009 10.4936 4.07825 10.6718C4.25641 10.8499 4.49804 10.95 4.75 10.95H9.05V15.25C9.05 15.502 9.15009 15.7436 9.32825 15.9218C9.50641 16.0999 9.74804 16.2 10 16.2C10.252 16.2 10.4936 16.0999 10.6718 15.9218C10.8499 15.7436 10.95 15.502 10.95 15.25V10.95H15.25C15.502 10.95 15.7436 10.8499 15.9218 10.6718C16.0999 10.4936 16.2 10.252 16.2 10C16.2 9.74804 16.0999 9.50641 15.9218 9.32825C15.7436 9.15009 15.502 9.05 15.25 9.05H10.95V4.75C10.95 4.49804 10.8499 4.25641 10.6718 4.07825Z" fill="white" stroke="white" stroke-width="0.4"/>
</svg>
