<svg width="24" height="24" viewBox="0 0 24 24" fill="none" xmlns="http://www.w3.org/2000/svg">
    <path d="M20.9437 10.6876L5.14686 1.84697C4.88365 1.69348 4.58056 1.62218 4.27652 1.64223C3.97249 1.66227 3.68139 1.77275 3.44061 1.95947C3.19471 2.15349 3.01617 2.42003 2.93034 2.72127C2.84452 3.0225 2.85576 3.34312 2.96248 3.6376L5.59686 10.997C5.62351 11.0704 5.67187 11.1339 5.73551 11.1791C5.79915 11.2243 5.87505 11.2491 5.95311 11.2501H12.7219C12.9165 11.247 13.105 11.3179 13.2494 11.4484C13.3939 11.5789 13.4834 11.7593 13.5 11.9532C13.5064 12.0556 13.4917 12.1582 13.4569 12.2547C13.4221 12.3511 13.3679 12.4394 13.2976 12.5141C13.2273 12.5888 13.1424 12.6483 13.0483 12.6889C12.9541 12.7295 12.8525 12.7503 12.75 12.7501H5.95311C5.87505 12.7511 5.79915 12.7759 5.73551 12.8211C5.67187 12.8663 5.62351 12.9298 5.59686 13.0032L2.96248 20.3626C2.88344 20.5893 2.85962 20.8316 2.89301 21.0694C2.92639 21.3072 3.01602 21.5335 3.15445 21.7297C3.29287 21.9259 3.4761 22.0862 3.68892 22.1974C3.90174 22.3085 4.13801 22.3673 4.37811 22.3688C4.6336 22.3677 4.88483 22.3033 5.10936 22.1813L20.9437 13.3126C21.1757 13.1809 21.3686 12.99 21.5028 12.7594C21.637 12.5289 21.7078 12.2669 21.7078 12.0001C21.7078 11.7333 21.637 11.4713 21.5028 11.2408C21.3686 11.0102 21.1757 10.8193 20.9437 10.6876Z" fill="url(#paint0_linear_196_795)"/>
    <defs>
        <linearGradient id="paint0_linear_196_795" x1="12.2905" y1="1.63892" x2="12.2905" y2="22.3688" gradientUnits="userSpaceOnUse">
            <stop stop-color="#E1D24A"/>
            <stop offset="1" stop-color="#C69223"/>
        </linearGradient>
    </defs>
</svg>
